{"asset":{"generator":"3D Builder","version":"2.0"},"scene":0,"scenes":[{"nodes":[0]}],"nodes":[{"mesh":0,"matrix":[39.370079040527344,0,0,0,0,-4.6932791519793682E-6,-39.370075225830078,0,0,39.370075225830078,-4.6932791519793682E-6,0,0.074209503829479218,0.020500019192695618,-0.25599995255470276,1]}],"meshes":[{"primitives":[{"attributes":{"POSITION":0,"TEXCOORD_0":1},"mode":4,"indices":2,"material":0}]}],"materials":[{"pbrMetallicRoughness":{"baseColorFactor":[1,1,1,1],"metallicFactor":1,"roughnessFactor":1,"baseColorTexture":{"index":0,"texCoord":0},"metallicRoughnessTexture":{"index":1,"texCoord":0}},"alphaMode":"OPAQUE"}],"textures":[{"source":0,"sampler":0},{"source":1,"sampler":0}],"images":[{"uri":"texture_0_6195987693227547908.png"},{"uri":"texture_1_17319628118832143767.png"}],"samplers":[{"magFilter":9729,"wrapS":10497,"wrapT":10497}],"accessors":[{"bufferView":0,"byteOffset":0,"count":7288,"componentType":5126,"type":"VEC3","min":[-0.0064190682023763657,-0.013004797510802746,-0.00052070128731429577],"max":[0.0026478753425180912,-1.5139579589984464E-9,0.000722557189874351]},{"bufferView":1,"byteOffset":0,"count":7288,"componentType":5126,"type":"VEC2"},{"bufferView":2,"byteOffset":0,"count":31584,"componentType":5125,"type":"SCALAR"}],"bufferViews":[{"buffer":0,"byteOffset":0,"byteLength":87456,"byteStride":12,"target":34962},{"buffer":0,"byteOffset":87456,"byteLength":58304,"byteStride":8,"target":34962},{"buffer":0,"byteOffset":145760,"byteLength":126336,"target":34963}],"buffers":[{"byteLength":272096,"uri":"Pizza.bin"}]}